<?xml version="1.0" standalone="no"?>
<!DOCTYPE svg PUBLIC "-//W3C//DTD SVG 20010904//EN"
 "http://www.w3.org/TR/2001/REC-SVG-20010904/DTD/svg10.dtd">
<svg version="1.0" xmlns="http://www.w3.org/2000/svg"
 width="512.000000pt" height="512.000000pt" viewBox="0 0 512.000000 512.000000"
 preserveAspectRatio="xMidYMid meet">

<g transform="translate(0.000000,512.000000) scale(0.100000,-0.100000)"
fill="#000000" stroke="none">
<path d="M2315 5109 c-800 -83 -1501 -518 -1927 -1196 -604 -961 -490 -2237
274 -3068 425 -462 951 -737 1583 -827 119 -17 512 -16 635 1 562 77 1067 321
1454 699 432 424 681 920 768 1527 17 118 17 512 0 630 -71 496 -262 943 -557
1300 -418 506 -982 825 -1630 921 -123 18 -478 26 -600 13z m1100 -1250 c103
-19 148 -50 316 -218 195 -195 214 -229 214 -371 0 -158 2 -155 -409 -566
-376 -378 -397 -394 -512 -413 -107 -17 -216 14 -293 84 l-42 38 -34 -33 -34
-33 35 -40 c115 -127 123 -317 18 -455 -23 -31 -188 -202 -366 -379 -295 -294
-330 -325 -393 -355 -60 -28 -80 -32 -150 -32 -70 0 -90 4 -150 32 -59 28 -91
55 -225 190 -196 196 -215 229 -215 372 0 153 -6 145 422 571 341 340 372 368
426 388 123 45 269 21 362 -61 l46 -41 35 34 34 33 -34 36 c-105 107 -124 301
-41 429 13 20 182 194 377 388 369 368 386 382 491 402 59 12 57 12 122 0z"/>
<path d="M2978 3262 c-334 -333 -338 -338 -338 -378 0 -27 7 -51 21 -69 l22
-27 93 93 94 94 95 -95 95 -95 -91 -91 c-53 -53 -89 -97 -85 -103 4 -6 21 -18
38 -27 63 -33 69 -28 420 323 180 181 332 341 337 356 18 46 -7 82 -151 225
-126 124 -137 132 -174 132 -38 0 -48 -10 -376 -338z"/>
<path d="M2115 2390 c-33 -14 -663 -652 -674 -683 -18 -46 7 -82 151 -224 126
-125 137 -133 174 -133 38 0 48 10 376 338 334 333 338 338 338 378 0 27 -7
51 -21 68 l-22 28 -61 -61 -61 -61 -95 95 -94 95 57 58 c31 32 57 61 57 65 0
12 -64 47 -85 46 -11 0 -29 -4 -40 -9z"/>
</g>
</svg>
