<?xml version="1.0" standalone="no"?>
<!DOCTYPE svg PUBLIC "-//W3C//DTD SVG 20010904//EN"
 "http://www.w3.org/TR/2001/REC-SVG-20010904/DTD/svg10.dtd">
<svg version="1.0" xmlns="http://www.w3.org/2000/svg"
 width="512.000000pt" height="512.000000pt" viewBox="0 0 512.000000 512.000000"
 preserveAspectRatio="xMidYMid meet">

<g transform="translate(0.000000,512.000000) scale(0.100000,-0.100000)"
fill="#000000" stroke="none">
<path d="M2165 5114 c-520 -16 -1207 -68 -1363 -105 -342 -79 -612 -349 -692
-691 -20 -88 -50 -389 -75 -757 -20 -293 -38 -951 -29 -1068 l6 -91 132 64
c72 36 134 73 138 82 4 9 7 38 7 64 1 50 9 57 76 64 61 7 70 9 76 18 4 5 26
10 49 12 22 1 48 8 55 14 8 7 19 9 25 5 6 -4 17 -1 25 5 8 7 21 10 30 7 8 -4
17 -2 20 3 4 6 11 10 16 10 6 0 7 -5 3 -12 -5 -8 0 -9 17 -4 45 14 122 25 132
19 18 -11 82 -11 109 0 l26 11 5 266 c5 283 15 367 63 515 108 334 366 547
709 585 145 16 1046 23 1395 11 256 -8 331 -14 398 -31 306 -74 532 -298 613
-605 28 -107 38 -360 38 -945 0 -585 -10 -838 -38 -945 -76 -288 -284 -507
-562 -593 -90 -28 -222 -41 -492 -48 -220 -6 -227 -7 -212 -25 10 -10 14 -22
11 -28 -4 -5 3 -12 14 -16 20 -6 23 -24 5 -37 -5 -4 0 -8 13 -8 17 0 22 -6 22
-24 0 -14 8 -31 18 -38 9 -7 17 -19 18 -25 1 -7 2 -26 3 -41 0 -19 9 -33 24
-40 20 -10 21 -11 2 -11 -16 -1 -17 -3 -6 -10 8 -5 15 -20 17 -33 1 -12 3 -26
3 -29 1 -4 28 -18 61 -32 33 -15 60 -31 60 -37 0 -6 4 -9 8 -6 5 3 25 -6 45
-19 20 -14 43 -25 52 -25 8 0 18 -6 21 -14 3 -8 21 -17 41 -21 25 -4 33 -10
29 -21 -3 -8 0 -14 7 -14 15 0 67 -44 67 -56 0 -5 11 -18 25 -28 19 -15 23
-22 14 -32 -9 -11 -7 -14 6 -14 10 0 15 -3 12 -6 -3 -4 -2 -15 4 -25 8 -16 6
-19 -16 -19 -19 0 -24 -4 -18 -13 4 -6 8 -22 8 -35 1 -16 -5 -22 -22 -22 -13
0 -23 -4 -23 -10 0 -5 -11 -12 -25 -16 -14 -3 -23 -9 -21 -13 5 -8 -57 -30
-176 -62 -49 -13 -88 -27 -88 -31 0 -5 -21 -8 -47 -9 -27 0 -66 -4 -88 -9 -84
-19 503 5 885 36 437 35 516 49 669 120 261 122 446 348 510 626 26 111 66
548 93 1013 16 273 15 1196 -1 1485 -28 520 -69 943 -101 1057 -92 330 -365
586 -700 657 -122 25 -543 62 -985 86 -198 10 -958 20 -1150 14z"/>
<path d="M1900 3850 c-140 -6 -189 -12 -245 -30 -183 -58 -303 -176 -361 -355
-23 -70 -27 -105 -35 -285 -4 -113 -8 -318 -8 -456 l-1 -251 50 1 c28 0 50 3
50 7 0 4 9 9 20 12 11 3 20 1 20 -3 0 -9 39 -2 55 10 6 4 26 6 45 4 19 -3 41
-4 48 -4 49 3 68 6 79 13 14 9 43 -1 43 -16 0 -5 8 -3 18 5 18 15 30 17 48 6
8 -5 13 26 16 105 4 89 11 129 35 198 77 223 222 388 428 489 111 54 181 71
320 77 187 8 332 -31 482 -129 235 -153 373 -408 373 -688 0 -367 -233 -679
-590 -792 -66 -20 -95 -23 -235 -23 -155 0 -163 1 -255 33 -52 18 -124 51
-160 73 l-65 40 61 -58 c89 -85 114 -104 135 -106 10 -1 19 -7 19 -13 0 -16
23 -24 48 -17 14 3 22 -1 27 -16 3 -11 9 -20 13 -20 23 4 42 -2 37 -11 -5 -9
15 -15 38 -11 4 0 7 -4 7 -10 0 -17 24 -36 43 -33 9 1 17 -4 17 -12 0 -8 3
-13 8 -13 20 3 31 -3 36 -19 3 -9 15 -23 27 -30 17 -11 20 -11 14 0 -4 7 9 -4
29 -25 20 -21 36 -42 36 -46 0 -5 10 -8 23 -7 15 1 21 -4 19 -16 -1 -9 6 -19
17 -23 11 -3 21 -16 23 -28 2 -12 9 -21 16 -19 6 1 11 -4 10 -10 -2 -7 3 -12
11 -10 12 3 12 0 2 -12 -11 -13 -10 -15 8 -11 14 2 21 -1 21 -11 0 -10 5 -12
13 -8 7 5 6 1 -2 -10 -14 -17 -2 -18 275 -14 281 4 291 5 370 31 131 43 242
128 308 234 55 89 78 184 87 363 11 216 10 1109 -1 1320 -12 239 -52 352 -165
464 -64 64 -120 98 -221 132 -69 23 -103 28 -269 35 -222 9 -1061 9 -1315 -1z
m1618 -259 c119 -61 141 -225 43 -314 -49 -44 -100 -61 -159 -53 -157 21 -224
204 -119 323 18 20 45 42 62 49 45 20 129 17 173 -5z"/>
<path d="M2490 3088 c-124 -14 -237 -73 -323 -168 -95 -106 -137 -215 -137
-361 0 -146 52 -273 154 -374 213 -210 547 -209 756 4 103 104 152 224 152
371 0 151 -49 269 -156 376 -123 122 -271 173 -446 152z"/>
</g>
</svg>
